<?xml version="1.0" standalone="no"?>
<!DOCTYPE svg PUBLIC "-//W3C//DTD SVG 20010904//EN"
 "http://www.w3.org/TR/2001/REC-SVG-20010904/DTD/svg10.dtd">
<svg version="1.0" xmlns="http://www.w3.org/2000/svg"
 width="512.000000pt" height="512.000000pt" viewBox="0 0 512.000000 512.000000"
 preserveAspectRatio="xMidYMid meet">
<metadata>
Created by potrace 1.14, written by Peter Selinger 2001-2017
</metadata>
<g transform="translate(0.000000,512.000000) scale(0.100000,-0.100000)"
fill="#000000" stroke="none">
<path d="M481 5056 c-88 -134 -159 -350 -216 -658 l-36 -190 -63 -97 c-36 -53
-87 -118 -115 -146 -37 -36 -51 -57 -51 -77 l0 -27 35 20 c53 32 102 92 252
313 35 50 205 394 217 437 l7 24 -21 -25 c-26 -31 -94 -142 -149 -240 -39 -71
-41 -73 -35 -35 39 256 132 533 234 701 l39 64 -28 0 c-24 0 -35 -10 -70 -64z"/>
<path d="M4249 5091 c12 -16 35 -59 51 -97 17 -37 60 -115 95 -173 62 -102 67
-115 126 -336 81 -302 76 -275 45 -275 -29 0 -206 54 -249 77 -16 8 -49 30
-74 49 -55 42 -136 84 -213 110 -40 14 -84 19 -166 19 -103 0 -114 -2 -169
-30 -63 -32 -105 -81 -105 -121 0 -56 110 -142 312 -245 68 -34 173 -94 233
-134 105 -68 241 -146 370 -212 79 -40 219 -130 286 -185 100 -82 222 -157
305 -188 22 -9 24 -7 24 23 -1 30 -5 34 -78 69 -72 35 -178 106 -347 233 -38
29 -133 84 -210 122 -77 38 -187 99 -245 134 -58 36 -197 116 -310 178 -233
129 -262 148 -279 189 -17 40 5 73 63 102 152 73 346 33 507 -105 106 -91 241
-132 468 -145 92 -5 189 -12 216 -14 l50 -5 -62 29 c-44 21 -84 31 -142 36
-45 4 -85 12 -90 18 -4 6 -13 29 -19 51 -44 161 -67 245 -92 344 -24 94 -40
131 -84 200 -30 47 -82 137 -117 199 -58 102 -66 112 -92 112 l-28 0 20 -29z"/>
<path d="M4734 5102 c12 -38 62 -150 76 -170 16 -24 43 -27 137 -16 l51 6 -37
37 c-22 22 -46 61 -59 99 -18 47 -28 62 -43 62 -24 0 -24 -6 2 -74 11 -31 18
-60 14 -66 -14 -23 -33 -6 -68 65 -28 57 -42 75 -58 75 -15 0 -19 -5 -15 -18z"/>
<path d="M1537 4676 c-4 -11 -7 -96 -7 -188 2 -160 0 -173 -24 -231 -65 -159
-120 -312 -151 -416 l-32 -114 -54 -22 c-88 -36 -132 -61 -192 -110 -69 -56
-76 -81 -9 -32 57 42 118 73 190 98 l54 19 -5 -23 c-23 -90 -67 -424 -67 -505
0 -66 -125 210 -145 321 -4 20 -10 37 -14 37 -4 0 -22 -53 -41 -117 -41 -147
-44 -153 -59 -126 -26 49 -82 304 -92 418 -16 186 -19 210 -30 194 -12 -19
-11 -210 2 -306 36 -271 100 -464 225 -680 105 -180 225 -295 402 -383 33 -17
50 -30 43 -34 -6 -4 -60 -8 -119 -9 -89 -2 -119 2 -174 21 -77 27 -168 83
-217 136 -19 20 -39 36 -45 36 -5 0 20 -31 55 -69 60 -64 134 -169 126 -178
-12 -12 -215 181 -281 267 -23 30 -60 83 -81 118 -21 34 -39 62 -41 62 -2 0 9
-26 23 -57 35 -77 124 -212 184 -278 27 -29 49 -61 49 -71 0 -28 55 -232 96
-357 20 -60 34 -110 32 -112 -9 -9 -209 135 -277 199 -87 83 -209 237 -217
275 -18 82 -24 68 -19 -44 7 -168 52 -408 91 -489 13 -26 8 -24 -31 18 -75 80
-144 213 -172 330 -26 114 -53 307 -53 385 0 55 -9 116 -30 198 -31 124 -69
400 -71 512 -3 130 -14 133 -28 8 -18 -158 2 -383 48 -547 12 -41 28 -145 36
-230 26 -277 48 -368 128 -525 63 -123 155 -223 230 -248 26 -9 47 -12 47 -7
0 5 -4 12 -10 15 -9 5 -23 47 -40 123 -4 17 -7 32 -5 32 2 0 17 -24 33 -52 33
-58 178 -228 194 -228 5 0 -11 -24 -37 -52 -65 -72 -115 -148 -115 -174 0 -14
28 -48 78 -96 l79 -73 -80 -85 c-43 -47 -115 -125 -159 -174 -49 -54 -77 -79
-73 -65 4 13 35 96 71 183 35 88 62 161 61 162 -3 3 -137 -149 -221 -250 -71
-86 -159 -221 -188 -287 -22 -49 -22 -49 -67 -47 -37 1 -40 2 -13 5 l32 4 0
120 c0 259 56 490 162 672 15 26 28 50 28 53 0 2 -24 -13 -53 -36 -66 -49
-276 -150 -402 -192 -93 -31 -95 -32 -95 -64 0 -28 4 -32 32 -37 70 -10 202
23 270 69 21 13 38 23 38 20 0 -2 -9 -23 -20 -48 -36 -82 -78 -299 -95 -490
l-7 -77 -107 -3 -106 -3 -3 -373 -2 -372 2560 0 2560 0 0 377 0 376 -480 -6
-480 -7 0 44 c0 48 17 236 26 277 6 31 96 79 150 79 20 0 95 -14 167 -31 167
-38 338 -59 495 -59 l122 0 0 34 c0 22 -6 36 -16 40 -9 3 -100 6 -202 7 -200
0 -269 6 -456 34 -116 18 -181 15 -239 -10 -16 -7 -17 -4 -11 21 9 38 33 64
126 135 109 83 130 107 310 347 231 308 285 362 361 362 19 0 55 3 81 6 l46 7
0 110 c0 108 0 110 -34 156 -36 49 -90 151 -80 151 3 0 24 -13 47 -28 23 -16
48 -32 55 -36 9 -6 12 38 12 206 l0 213 -34 23 c-31 21 -33 26 -26 60 14 69
20 132 11 132 -4 0 -21 -44 -36 -97 -67 -241 -109 -324 -224 -445 -46 -48 -87
-88 -92 -88 -4 0 -1 19 7 42 8 24 24 108 36 188 17 120 19 176 15 330 -5 178
-24 331 -47 368 -8 13 -9 10 -6 -18 3 -19 8 -75 12 -125 l6 -90 -42 45 c-95
102 -92 93 -79 223 7 65 8 131 4 153 l-8 39 -8 -60 c-53 -393 -219 -881 -386
-1133 -52 -78 -197 -227 -294 -302 l-81 -63 24 39 c117 186 203 508 197 741
l-3 92 43 51 c72 85 142 259 141 348 -1 18 -10 3 -30 -50 -75 -203 -196 -364
-339 -451 -65 -39 -67 -37 -21 23 37 47 87 133 116 198 l23 53 -67 -57 c-110
-94 -212 -154 -315 -185 l-59 -18 59 62 c103 108 160 207 211 367 51 161 63
233 69 426 l6 181 -54 13 c-113 25 -322 118 -430 190 -89 59 -228 164 -229
171 0 13 47 20 184 26 102 5 133 9 115 15 -31 12 -228 15 -295 5 l-52 -7 -47
47 c-25 26 -72 83 -102 125 -31 43 -57 77 -59 75 -1 -1 4 -36 11 -77 8 -41 18
-108 23 -148 l8 -73 -70 -35 c-38 -20 -82 -44 -97 -55 -44 -31 -37 -37 -119
115 -44 83 -97 212 -141 346 -40 122 -41 100 -4 -65 38 -163 46 -271 43 -550
l-3 -260 -34 82 c-19 46 -36 81 -39 79 -7 -8 68 -218 106 -293 51 -103 119
-207 177 -271 56 -62 50 -64 -79 -27 -99 29 -237 94 -328 157 -140 94 -298
284 -383 458 -42 86 -41 71 11 -117 45 -166 103 -317 163 -424 l50 -90 -41 23
c-98 55 -292 268 -387 426 -91 152 -168 358 -205 552 -13 71 -43 333 -48 430
-2 33 -5 40 -11 26z m1516 -412 l49 -52 -45 -15 -44 -15 -7 52 c-6 53 -8 93
-3 85 1 -2 24 -27 50 -55z m-364 -153 l52 -84 -21 -22 c-27 -28 -26 -40 2 -21
33 23 40 20 77 -35 19 -27 69 -86 113 -131 43 -45 78 -83 78 -84 0 -1 -19 -14
-42 -28 -54 -32 -88 -63 -112 -101 -18 -29 -18 -30 0 -12 18 17 20 17 45 -14
l26 -32 -24 -47 c-14 -26 -27 -66 -30 -88 l-5 -40 74 73 c64 63 166 135 192
135 4 0 -5 -15 -22 -34 -101 -115 -101 -349 0 -497 41 -60 84 -89 134 -89 l39
0 -42 21 c-50 24 -104 82 -132 138 -18 39 -18 73 0 97 5 6 6 13 3 17 -13 13 9
45 45 65 40 23 66 29 57 13 -12 -19 8 -73 36 -102 33 -33 80 -39 115 -14 11 8
29 37 39 65 15 43 21 49 38 44 12 -4 27 -11 33 -16 7 -6 19 -8 27 -5 8 3 25
-2 37 -12 l23 -18 -18 -67 c-24 -86 -77 -167 -130 -197 -31 -18 -37 -24 -23
-27 33 -7 88 9 95 26 3 9 14 26 25 37 48 51 76 140 84 267 7 113 -5 169 -49
229 -27 38 -28 39 -6 28 57 -30 129 -94 167 -149 41 -58 41 -59 26 -92 -8 -18
-13 -25 -10 -14 4 13 1 17 -9 13 -7 -3 -19 0 -26 6 -7 7 -3 -3 10 -21 22 -33
22 -35 7 -68 -26 -54 -1 -41 73 37 l68 71 -28 -102 c-35 -122 -74 -209 -131
-287 -67 -92 -138 -171 -160 -178 -36 -12 -19 -23 29 -18 135 13 214 39 309
104 l46 31 -18 -29 c-36 -57 -98 -134 -136 -168 -21 -19 -39 -37 -39 -39 0 -6
106 31 151 54 24 12 73 43 108 68 l64 45 -6 -124 c-8 -167 -22 -227 -54 -240
-34 -13 -73 -11 -74 4 0 6 -2 23 -2 37 -3 46 -22 35 -43 -25 -38 -105 -120
-280 -160 -341 -57 -86 -214 -244 -429 -434 -206 -181 -298 -253 -360 -281
-55 -25 -137 -24 -231 5 -44 12 -135 40 -204 60 -170 51 -438 150 -535 199
-118 58 -206 120 -269 187 -73 80 -93 110 -245 369 -118 201 -127 220 -103
214 57 -15 215 -8 275 11 58 19 74 36 35 36 -59 1 -225 95 -311 176 l-39 36
26 36 c126 178 231 247 421 279 63 10 122 13 200 9 102 -6 108 -5 90 9 -11 9
-14 14 -7 10 6 -3 12 -2 12 3 0 14 -152 81 -212 93 -29 6 -65 19 -80 30 -33
23 -38 23 -38 5 0 -10 -16 -17 -47 -21 -27 -3 -76 -13 -110 -21 -59 -15 -65
-15 -128 6 -37 12 -69 20 -71 17 -3 -3 3 -26 15 -51 l20 -46 -71 -70 c-61 -61
-76 -70 -109 -71 -22 -1 -44 -2 -51 -3 -6 -1 -24 31 -40 69 -28 68 -29 74 -24
190 4 66 9 133 13 149 6 28 8 25 47 -55 38 -75 130 -209 145 -209 3 0 4 25 3
55 -5 80 53 489 78 551 10 25 57 33 250 43 115 6 123 8 95 20 -20 9 -78 14
-178 15 l-148 1 5 27 c9 44 93 253 138 340 l42 83 9 -45 c29 -151 151 -435
245 -565 83 -117 176 -219 260 -286 84 -67 171 -122 210 -134 21 -6 20 -1 -17
59 -60 98 -99 179 -138 286 l-34 95 64 -67 c184 -188 452 -327 665 -344 l77
-7 -31 34 c-42 47 -144 191 -189 268 l-37 63 -2 323 c0 178 0 323 0 322 1 -1
25 -40 53 -86z m541 -11 c142 -127 343 -255 519 -331 l79 -34 6 -59 c3 -32 6
-95 6 -140 -1 -64 -3 -77 -12 -61 -6 11 -26 36 -45 56 l-35 37 22 42 c12 23
20 46 18 51 -2 6 -24 -1 -48 -14 l-46 -24 -36 31 c-19 17 -64 48 -99 68 l-63
38 3 46 3 45 -34 -36 -33 -37 -120 -2 c-106 -2 -127 -5 -175 -28 -47 -23 -56
-24 -58 -11 -2 9 2 19 10 24 10 7 9 9 -4 9 -12 0 -19 14 -27 53 -20 96 -41
242 -41 279 0 35 1 37 58 56 31 11 62 17 68 13 6 -3 44 -35 84 -71z m-245 -27
c12 -92 57 -318 67 -337 31 -58 -131 111 -219 228 -40 54 -42 60 -26 71 25 18
156 85 164 85 4 0 11 -21 14 -47z m39 -358 l24 -16 -48 -49 c-47 -48 -49 -49
-82 -38 -18 6 -37 14 -41 18 -7 6 106 98 121 100 1 0 13 -7 26 -15z m129 -257
c35 -16 43 -47 23 -86 -30 -58 -96 -81 -130 -46 -19 18 -19 14 -5 70 17 67 55
88 112 62z m397 -149 c0 -24 -23 -21 -28 4 -2 10 3 17 12 17 10 0 16 -9 16
-21z m-2322 -494 c2 -2 5 -22 6 -44 2 -23 2 -40 1 -39 -1 2 -16 25 -34 51
l-32 48 28 -7 c15 -4 29 -8 31 -9z m3347 -513 c21 -93 94 -320 121 -373 l23
-46 -33 -39 c-18 -22 -58 -75 -89 -119 -31 -44 -68 -93 -81 -110 l-26 -30 -98
100 c-110 112 -188 221 -221 309 l-22 59 39 41 c49 53 73 87 155 222 64 106
146 276 148 305 0 15 62 -219 84 -319z m-3400 177 c26 -16 65 -65 139 -178
164 -248 178 -283 121 -297 -52 -13 -113 5 -177 54 -55 42 -64 54 -83 112 -21
61 -56 230 -49 230 2 0 20 -9 41 -19 75 -38 107 -38 59 0 -23 18 -101 119 -92
119 3 0 21 -10 41 -21z m-330 -379 c21 -22 37 -40 34 -40 -3 0 -23 18 -44 40
-21 22 -37 40 -34 40 3 0 23 -18 44 -40z m95 -85 c13 -14 21 -25 18 -25 -2 0
-15 11 -28 25 -13 14 -21 25 -18 25 2 0 15 -11 28 -25z m3188 -240 c-5 -231 1
-206 -84 -355 l-42 -72 -6 184 c-3 101 -3 219 2 263 7 78 9 82 67 156 49 63
61 72 64 55 2 -11 1 -115 -1 -231z m-2642 200 c-11 -8 -25 -15 -30 -15 -6 1 0
7 14 15 32 19 40 18 16 0z m-485 -12 c13 -16 12 -17 -3 -4 -10 7 -18 15 -18
17 0 8 8 3 21 -13z m343 -56 c-22 -24 -41 -42 -43 -40 -5 3 70 83 77 83 3 0
-13 -19 -34 -43z m-273 6 c13 -16 12 -17 -3 -4 -10 7 -18 15 -18 17 0 8 8 3
21 -13z m309 -124 c0 -19 -16 -34 -23 -22 -3 5 -8 24 -12 43 l-7 35 21 -19
c11 -11 21 -27 21 -37z m-140 15 c0 -2 -9 0 -20 6 -11 6 -20 13 -20 16 0 2 9
0 20 -6 11 -6 20 -13 20 -16z m24 -54 c42 -18 76 -34 76 -36 0 -24 -199 -361
-228 -388 -19 -16 -23 -14 -119 58 -136 102 -132 95 -89 158 19 29 54 72 78
95 67 64 182 152 195 148 6 -2 46 -18 87 -35z m241 -16 l80 -42 23 -113 c36
-181 53 -331 60 -512 l7 -167 -132 0 -133 0 0 441 c0 242 3 439 8 437 4 -2 43
-22 87 -44z m2906 -139 l57 -42 -41 -52 c-31 -40 -46 -51 -61 -48 -19 5 -177
59 -184 63 -2 2 3 33 11 71 9 37 19 96 23 130 l7 63 66 -72 c36 -39 91 -90
122 -113z m-1026 136 c-53 -50 -344 -293 -390 -326 -114 -81 -193 -87 -380
-31 -66 20 -156 48 -200 61 -52 16 -82 20 -86 14 -3 -6 -9 -1 -12 11 -5 18 -2
20 16 14 344 -110 372 -117 462 -118 74 -1 98 3 135 21 43 21 194 143 370 296
41 37 79 66 85 67 5 0 5 -3 0 -9z m7 -231 c4 -67 2 -90 -3 -65 -8 39 -12 182
-5 174 2 -2 6 -51 8 -109z m-1597 -185 c90 -239 104 -297 112 -442 l6 -123
-197 0 c-183 0 -197 1 -193 18 3 9 8 29 11 43 6 26 9 27 86 30 119 6 114 -6
95 245 -9 115 -20 232 -25 260 -8 45 -3 92 16 153 8 26 21 -1 89 -184z m1567
35 c56 16 59 6 4 -13 l-46 -16 -67 75 c-37 41 -74 74 -83 74 -28 0 -107 -63
-145 -116 -46 -64 -60 -65 -17 -1 37 52 94 104 136 123 31 13 31 13 105 -62
l74 -76 39 12z m920 73 l59 -26 -33 -29 c-18 -15 -53 -42 -77 -60 l-44 -31 8
59 c4 32 9 63 12 67 3 5 19 6 36 3 l32 -6 -30 14 c-19 9 -36 11 -46 5 -23 -12
-43 -134 -64 -379 -9 -107 -19 -219 -21 -247 l-5 -53 -160 0 c-87 0 -159 3
-159 7 0 4 31 70 69 147 38 78 88 184 111 236 42 92 162 297 184 312 21 15 69
8 128 -19z m-948 -167 c-11 -25 -240 -180 -254 -171 -5 3 -10 15 -10 25 0 24
-47 79 -77 91 -23 9 -23 9 -7 41 29 58 94 138 137 169 l41 30 87 -87 c48 -48
85 -92 83 -98z m-985 124 c0 -9 -4 -8 -9 5 -5 11 -9 27 -9 35 0 9 4 8 9 -5 5
-11 9 -27 9 -35z m225 -149 c110 0 243 4 294 7 50 4 92 4 92 0 0 -9 -134 -17
-382 -23 -208 -5 -218 -4 -218 14 0 10 -2 40 -5 67 -4 47 -4 47 7 -8 l10 -58
202 1z m399 44 c-3 -9 -8 -14 -10 -11 -3 3 -2 9 2 15 9 16 15 13 8 -4z m-99
-99 c31 -13 66 -49 66 -68 0 -5 -15 -8 -32 -7 -24 0 -28 2 -15 7 17 7 16 9 -3
29 -38 42 -111 41 -160 -1 l-25 -21 25 29 c41 47 85 57 144 32z m119 -7 c52
-24 75 -125 42 -188 -15 -31 -61 -55 -94 -49 -20 3 -20 4 7 33 25 26 28 37 26
85 -2 71 0 64 -30 99 l-26 31 26 0 c14 0 36 -5 49 -11z m-130 -76 c-7 -2 -21
-2 -30 0 -10 3 -4 5 12 5 17 0 24 -2 18 -5z m-193 -22 c0 -4 -11 -6 -25 -3
-14 2 -25 6 -25 8 0 2 11 4 25 4 14 0 25 -4 25 -9z m-40 -11 l25 -8 -25 0
c-14 0 -36 4 -50 8 l-25 8 25 0 c14 0 36 -4 50 -8z m1168 -11 c41 -6 72 -16
72 -22 0 -23 -59 -137 -111 -212 l-52 -77 -171 7 c-109 5 -174 12 -178 19 -11
16 -10 74 2 97 6 10 19 19 28 19 60 0 272 138 272 177 0 10 9 13 33 9 17 -3
65 -10 105 -17z m-1236 3 c15 -6 13 -9 -8 -19 -22 -10 -24 -10 -14 3 16 18 -9
20 -30 2 -12 -11 -12 -10 -1 5 14 18 25 20 53 9z m378 -33 c0 -12 -15 -36 -34
-55 -31 -31 -39 -34 -87 -33 l-54 2 52 6 c53 7 87 28 96 62 4 14 0 19 -16 20
-20 1 -20 2 3 9 38 12 40 12 40 -11z m-87 -6 c-7 -2 -21 -2 -30 0 -10 3 -4 5
12 5 17 0 24 -2 18 -5z m324 -138 c35 -53 73 -118 73 -127 0 -2 -67 -2 -150 0
-133 3 -150 5 -151 20 -1 9 -2 41 -3 70 -1 52 0 54 34 68 19 8 45 25 58 37 22
20 23 20 16 2 -3 -11 -13 -36 -22 -55 -8 -19 -17 -53 -20 -77 -4 -34 -1 -44
13 -49 28 -11 52 31 58 103 2 35 1 80 -3 99 l-8 36 32 -34 c18 -18 51 -60 73
-93z m-2264 -22 l4 -102 -94 -3 c-51 -2 -93 -1 -93 0 0 2 26 36 58 75 31 40
70 90 86 111 17 22 31 35 32 30 1 -5 4 -55 7 -111z m1789 89 c-6 -2 -25 2 -44
7 l-33 11 33 -5 c24 -3 31 -1 26 8 -5 7 0 6 10 -3 10 -8 14 -16 8 -18z m-62
-3 c16 -5 4 -6 -35 -2 -33 3 -62 7 -64 9 -8 8 74 2 99 -7z m-74 -17 c-21 -2
-42 0 -47 5 -4 4 13 6 39 3 l47 -5 -39 -3z m-475 -94 c6 -11 4 -18 -6 -22 -12
-4 -15 3 -14 32 0 20 3 30 6 22 3 -8 10 -22 14 -32z m155 -53 c-15 -35 -15
-35 -80 -35 -37 0 -66 3 -66 8 0 4 19 19 43 34 23 15 54 39 67 53 l24 26 13
-25 c11 -22 11 -31 -1 -61z m666 5 l5 -30 -254 0 -253 0 12 26 12 26 106 -6
c58 -3 155 -2 215 3 61 4 120 9 131 9 17 2 23 -5 26 -28z m-2319 -27 c-34 -2
-93 -2 -130 0 -37 2 -10 3 62 3 72 0 102 -1 68 -3z m750 0 c-68 -2 -178 -2
-245 0 -68 1 -13 3 122 3 135 0 190 -2 123 -3z m-375 -229 c21 -14 22 -22 22
-159 0 -142 0 -145 -25 -161 -13 -8 -29 -13 -35 -9 -11 7 -15 327 -3 338 9 10
16 9 41 -9z m260 -156 c-3 -167 -4 -173 -23 -170 -31 5 -45 31 -45 84 0 45 -2
48 -25 48 -28 0 -65 32 -65 55 0 11 12 15 45 15 l45 0 0 50 c0 52 23 90 55 90
13 0 15 -23 13 -172z m307 153 c169 -77 115 -324 -71 -324 -41 0 -63 6 -93 26
-42 28 -81 96 -81 140 0 33 24 94 48 121 23 26 91 56 127 56 17 0 48 -9 70
-19z m215 -1 c15 -15 20 -33 20 -74 0 -48 3 -57 31 -80 33 -28 45 -31 83 -16
33 12 56 59 56 113 0 48 27 84 55 74 18 -7 21 -91 5 -149 -10 -34 -78 -108
-100 -108 -6 0 -10 -10 -10 -23 0 -29 -19 -55 -45 -59 -17 -3 -20 3 -23 39 -3
35 -7 43 -33 53 -17 7 -42 28 -56 47 -23 30 -27 47 -31 119 -4 73 -2 84 12 84
9 0 25 -9 36 -20z m566 1 c56 -25 87 -71 92 -138 5 -64 -9 -103 -54 -143 -137
-120 -341 25 -270 193 38 92 140 130 232 88z m181 11 c15 -10 29 -46 59 -162
25 -91 37 -120 49 -108 3 3 19 59 36 124 17 65 38 127 46 137 14 15 63 25 63
13 0 -3 -18 -71 -40 -152 -25 -94 -47 -155 -59 -168 -27 -26 -85 -27 -110 0
-18 17 -91 267 -91 308 0 17 26 21 47 8z m613 -7 c0 -8 -9 -24 -20 -35 -18
-18 -33 -20 -130 -20 -97 0 -112 2 -130 20 -11 11 -20 27 -20 35 0 13 23 15
150 15 127 0 150 -2 150 -15z m311 -1 c36 -18 63 -75 54 -113 -7 -30 -53 -81
-72 -81 -20 0 -15 -11 32 -69 24 -30 42 -58 39 -63 -27 -43 -154 63 -154 128
0 29 5 36 39 54 43 21 60 53 41 75 -9 11 -34 15 -86 15 l-74 0 0 -118 c0 -124
-7 -148 -45 -154 -19 -3 -20 3 -20 145 l0 149 28 24 c25 21 38 24 108 24 53 0
90 -5 110 -16z m411 -9 c-6 -36 -31 -45 -129 -45 -69 0 -93 -3 -93 -13 0 -7
41 -33 92 -57 121 -60 138 -74 138 -115 0 -79 -30 -95 -175 -95 -86 0 -107 3
-112 15 -3 9 2 24 12 35 14 16 34 20 111 22 52 2 95 7 97 13 1 6 -43 33 -98
61 -130 68 -152 96 -124 158 18 38 45 45 169 43 109 -2 115 -3 112 -22z m378
6 c0 -38 -37 -51 -145 -51 -108 0 -145 13 -145 51 0 18 8 19 145 19 137 0 145
-1 145 -19z m-1200 -140 c0 -28 -27 -45 -84 -51 -49 -5 -51 -6 -51 -35 l0 -30
102 -3 c96 -3 104 -4 119 -27 9 -13 13 -29 9 -35 -10 -17 -220 -13 -255 5 -55
28 -63 136 -12 175 19 16 40 20 98 20 66 0 74 -2 74 -19z m1100 0 c0 -29 -38
-51 -87 -51 -47 0 -58 -10 -49 -46 6 -23 9 -24 105 -24 105 0 136 -12 129 -49
-3 -14 -21 -16 -125 -16 -115 0 -123 1 -147 24 -22 20 -26 33 -26 78 0 44 5
58 25 78 21 22 33 25 100 25 68 0 75 -2 75 -19z"/>
<path d="M1655 3215 l-50 -14 50 7 c96 13 236 5 300 -16 33 -12 61 -20 62 -18
2 1 -18 13 -45 27 -40 21 -63 24 -157 26 -68 1 -129 -3 -160 -12z"/>
<path d="M3641 3144 c-29 -37 -27 -41 19 -46 22 -2 40 -2 40 0 0 8 -30 72 -34
72 -2 0 -14 -12 -25 -26z"/>
<path d="M3572 3057 l-22 -24 26 -12 c33 -15 37 -11 27 29 l-8 31 -23 -24z"/>
<path d="M2493 2800 c0 -36 2 -50 4 -32 2 17 2 47 0 65 -2 17 -4 3 -4 -33z"/>
<path d="M2805 2483 c-78 -6 -241 -34 -290 -50 -62 -19 -244 -97 -307 -131
-55 -29 -58 -43 -27 -111 59 -130 179 -255 307 -318 51 -25 67 -28 162 -28 92
0 112 3 161 26 114 54 213 180 261 334 25 81 37 263 17 276 -13 8 -195 10
-284 2z m249 -43 c8 -8 3 -10 -19 -6 l-30 6 29 -11 29 -12 -6 -101 c-3 -76
-10 -113 -27 -151 -85 -185 -182 -274 -322 -294 -133 -19 -282 36 -358 131
-60 76 -66 103 -39 195 19 63 31 83 68 119 77 74 174 114 336 138 57 8 328 -3
339 -14z"/>
<path d="M3118 3773 c7 -3 16 -2 19 1 4 3 -2 6 -13 5 -11 0 -14 -3 -6 -6z"/>
<path d="M3103 1349 c-17 -17 -4 -39 23 -39 20 0 22 3 15 22 -10 26 -23 32
-38 17z"/>
<path d="M1411 456 c-57 -31 -67 -107 -22 -158 25 -28 36 -33 76 -33 40 0 51
5 76 33 42 46 40 93 -5 138 -37 37 -81 44 -125 20z"/>
<path d="M2169 441 c-23 -24 -29 -38 -29 -73 0 -116 144 -148 194 -43 49 102
-85 196 -165 116z"/>
<path d="M395 3790 c-21 -33 -65 -80 -96 -105 -76 -60 -197 -124 -251 -133
-37 -6 -43 -11 -46 -35 -4 -36 17 -43 82 -30 28 6 52 10 53 9 4 -4 -88 -180
-110 -209 -21 -27 -27 -47 -27 -83 l0 -47 21 19 c26 23 85 124 160 272 42 82
74 131 117 175 69 73 106 126 126 185 8 23 14 42 12 42 -1 0 -20 -27 -41 -60z"/>
<path d="M4717 3145 c-4 -8 -2 -17 3 -20 6 -4 10 3 10 14 0 25 -6 27 -13 6z"/>
<path d="M221 2624 c-50 -83 -131 -170 -185 -199 -32 -17 -36 -24 -36 -57 0
-21 4 -38 8 -38 21 0 103 63 158 122 l61 66 12 -107 c7 -58 23 -160 36 -226
22 -117 22 -121 5 -168 -27 -71 -147 -244 -217 -314 -50 -49 -63 -67 -63 -92
0 -17 5 -31 11 -31 18 0 168 150 215 217 49 68 115 201 143 291 20 63 46 211
38 218 -3 3 -20 -36 -37 -86 -18 -50 -34 -89 -36 -88 -7 8 -46 327 -51 426 -3
64 -8 122 -12 128 -3 7 -26 -21 -50 -62z"/>
<path d="M5088 1963 c6 -2 18 -2 25 0 6 3 1 5 -13 5 -14 0 -19 -2 -12 -5z"/>
<path d="M4998 1513 c7 -3 16 -2 19 1 4 3 -2 6 -13 5 -11 0 -14 -3 -6 -6z"/>
<path d="M4918 1493 c7 -3 16 -2 19 1 4 3 -2 6 -13 5 -11 0 -14 -3 -6 -6z"/>
<path d="M4868 1483 c7 -3 16 -2 19 1 4 3 -2 6 -13 5 -11 0 -14 -3 -6 -6z"/>
<path d="M4729 1467 c5 -5 21 -7 37 -5 27 3 26 4 -8 9 -22 3 -34 1 -29 -4z"/>
<path d="M4828 1473 c7 -3 16 -2 19 1 4 3 -2 6 -13 5 -11 0 -14 -3 -6 -6z"/>
<path d="M4690 1460 c-9 -6 -10 -10 -3 -10 6 0 15 5 18 10 8 12 4 12 -15 0z"/>
</g>
</svg>
